#N canvas 28 198 1412 239 12;
#X obj 125 154 dac~ 1;
#X obj 125 34 r \$0-value;
#X obj 125 70 osc~;
#X obj 262 33 r \$0-fromxpd;
#X obj 262 153 s \$0-toxpd;
#X obj 372 33 notein, f 7;
#X obj 372 154 noteout;
#X obj 452 33 ctlin, f 6;
#X obj 452 153 ctlout;
#X obj 513 33 pgmin, f 6;
#X obj 513 153 pgmout;
#X obj 576 33 bendin, f 7;
#X obj 655 33 touchin, f 8;
#X obj 748 32 polytouchin, f 12;
#X obj 879 31 midiin, f 7;
#X obj 576 153 bendout;
#X obj 655 153 touchout;
#X obj 748 152 polytouchout;
#X obj 879 151 midiout;
#X connect 1 0 2 0;
#X connect 2 0 0 0;
#X connect 3 0 4 0;
#X connect 5 0 6 0;
#X connect 5 1 6 1;
#X connect 5 2 6 2;
#X connect 7 0 8 0;
#X connect 7 1 8 1;
#X connect 7 2 8 2;
#X connect 9 0 10 0;
#X connect 9 1 10 1;
#X connect 11 0 15 0;
#X connect 11 1 15 1;
#X connect 12 0 16 0;
#X connect 12 1 16 1;
#X connect 13 0 17 0;
#X connect 13 1 17 1;
#X connect 13 2 17 2;
#X connect 14 0 18 0;
#X connect 14 1 18 1;
#X coords 0 -1 1 1 85 60 2 100 100;
