#N canvas 360 233 450 300 12;
#X obj 37 122 dac~ 1;
#X obj 37 21 r \$0-value;
#X obj 105 58 s \$0-patch;
#X obj 157 112 print frompatch;
#X obj 37 57 osc~;
#N canvas 0 23 450 300 (subpatch) 0;
#X obj 359 74 r \$0-bang;
#X obj 263 58 inlet~;
#X obj 264 145 print~ dsp-patch;
#X obj 183 69 block~ 2;
#X connect 0 0 2 0;
#X connect 1 0 2 0;
#X restore 141 178 pd;
#X connect 1 0 2 0;
#X connect 1 0 3 0;
#X connect 1 0 4 0;
#X connect 4 0 0 0;
#X connect 4 0 5 0;
#X coords 0 -1 1 1 85 60 2 100 100;
