#N canvas 28 198 862 290 12;
#X obj 82 103 r \$0-fromxpd;
#X obj 192 103 notein, f 7;
#X obj 192 224 noteout;
#X obj 272 103 ctlin, f 6;
#X obj 272 223 ctlout;
#X obj 333 103 pgmin, f 6;
#X obj 333 223 pgmout;
#X obj 396 103 bendin, f 7;
#X obj 475 103 touchin, f 8;
#X obj 568 102 polytouchin, f 12;
#X obj 699 101 midiin, f 7;
#X obj 396 223 bendout;
#X obj 475 223 touchout;
#X obj 568 222 polytouchout;
#X obj 699 221 midiout;
#X obj 92 254 s \$0-toxpd2;
#X obj 82 223 s \$0-toxpd1;
#X obj 21 108 adc~;
#X obj 21 228 dac~;
#X obj 92 168 test_s;
#X obj 29 34 bng 15 250 50 0 empty empty empty 17 7 0 10 -262144 -1
-1;
#X obj 80 35 tgl 15 0 empty empty empty 17 7 0 10 -262144 -1 -1 0 1
;
#X connect 0 0 16 0;
#X connect 0 0 19 0;
#X connect 1 0 2 0;
#X connect 1 1 2 1;
#X connect 1 2 2 2;
#X connect 3 0 4 0;
#X connect 3 1 4 1;
#X connect 3 2 4 2;
#X connect 5 0 6 0;
#X connect 5 1 6 1;
#X connect 7 0 11 0;
#X connect 7 1 11 1;
#X connect 8 0 12 0;
#X connect 8 1 12 1;
#X connect 9 0 13 0;
#X connect 9 1 13 1;
#X connect 9 2 13 2;
#X connect 10 0 14 0;
#X connect 10 1 14 1;
#X connect 17 0 18 0;
#X connect 17 1 18 1;
#X connect 19 0 15 0;
#X coords 0 -1 1 1 85 60 2 20 20;
