#N canvas 28 198 707 391 12;
#X obj 541 87 r \$0-fromxpd;
#X obj 137 10 notein, f 7;
#X obj 137 61 noteout;
#X obj 217 10 ctlin, f 6;
#X obj 217 60 ctlout;
#X obj 278 10 pgmin, f 6;
#X obj 278 60 pgmout;
#X obj 341 10 bendin, f 7;
#X obj 420 10 touchin, f 8;
#X obj 219 281 polytouchin, f 12;
#X obj 350 280 midiin, f 7;
#X obj 341 60 bendout;
#X obj 420 60 touchout;
#X obj 219 331 polytouchout;
#X obj 350 330 midiout;
#X obj 551 238 s \$0-toxpd2;
#X obj 541 207 s \$0-toxpd1;
#X obj 29 103 adc~;
#X obj 29 223 dac~;
#X obj 551 152 test_s;
#X obj 110 114 bng 15 250 50 0 bngs bngr bngl 17 7 0 10 -262144 -1
-1;
#X obj 161 115 tgl 15 0 tgls tglr tgll 17 7 0 10 -262144 -1 -1 1 1
;
#X obj 225 115 vsl 15 128 0 127 0 0 vsls vslr vsll 0 -8 0 10 -262144
-1 -1 100 1;
#X obj 282 185 hsl 128 15 0 127 0 0 hsls hslr hsll 0 -8 0 10 -262144
-1 -1 100 1;
#X obj 440 120 vradio 15 1 0 8 vradios vradior vradiol 0 -8 0 10 -262144
-1 -1 1;
#X obj 290 143 hradio 15 1 0 8 hradios hradior hradiol 0 -8 0 10 -262144
-1 -1 1;
#X obj 108 156 vu 15 80 vur vul 0 -8 0 10 -66577 -1 1 0;
#X obj 178 168 cnv 15 30 30 cnvs cnvr cnvl 20 12 0 14 -233017 -66577
0;
#X obj 312 223 nbx 5 14 0 127 0 0 nbxs nbxr nbxl 0 -8 0 10 -262144
-1 -1 1 256;
#X obj 523 19 loadbang;
#X msg 523 44 1;
#X connect 0 0 16 0;
#X connect 0 0 19 0;
#X connect 1 0 2 0;
#X connect 1 1 2 1;
#X connect 1 2 2 2;
#X connect 3 0 4 0;
#X connect 3 1 4 1;
#X connect 3 2 4 2;
#X connect 5 0 6 0;
#X connect 5 1 6 1;
#X connect 7 0 11 0;
#X connect 7 1 11 1;
#X connect 8 0 12 0;
#X connect 8 1 12 1;
#X connect 9 0 13 0;
#X connect 9 1 13 1;
#X connect 9 2 13 2;
#X connect 10 0 14 0;
#X connect 10 1 14 1;
#X connect 17 0 18 0;
#X connect 17 1 18 1;
#X connect 19 0 15 0;
#X connect 29 0 30 0;
#X connect 30 0 25 0;
#X connect 30 0 24 0;
#X connect 30 0 23 0;
#X connect 30 0 22 0;
#X connect 30 0 21 0;
#X connect 30 0 28 0;
#X coords 0 -1 1 1 400 150 2 100 100;
