#N canvas 360 233 625 238 12;
#X obj 37 122 dac~ 1;
#X obj 37 21 r \$0-value;
#X obj 37 57 osc~;
#X obj 352 33 r \$0-fromxpd;
#X obj 352 153 s \$0-toxpd;
#X connect 1 0 2 0;
#X connect 2 0 0 0;
#X connect 3 0 4 0;
#X coords 0 -1 1 1 85 60 2 100 100;
