#N canvas 28 198 930 431 12;
#X obj 82 213 r \$0-fromxpd;
#X obj 192 213 notein, f 7;
#X obj 192 334 noteout;
#X obj 272 213 ctlin, f 6;
#X obj 272 333 ctlout;
#X obj 333 213 pgmin, f 6;
#X obj 333 333 pgmout;
#X obj 396 213 bendin, f 7;
#X obj 475 213 touchin, f 8;
#X obj 568 212 polytouchin, f 12;
#X obj 699 211 midiin, f 7;
#X obj 396 333 bendout;
#X obj 475 333 touchout;
#X obj 568 332 polytouchout;
#X obj 699 331 midiout;
#X obj 92 364 s \$0-toxpd2;
#X obj 82 333 s \$0-toxpd1;
#X obj 21 218 adc~;
#X obj 21 338 dac~;
#X obj 92 278 test_s;
#X obj 29 34 bng 15 250 50 0 bngs bngr bngl 17 7 0 10 -262144 -1 -1
;
#X obj 80 35 tgl 15 0 tgls tglr tgll 17 7 0 10 -262144 -1 -1 0 1;
#X obj 144 35 vsl 15 128 0 127 0 0 vsls vslr vsll 0 -9 0 10 -262144
-1 -1 0 1;
#X obj 201 105 hsl 128 15 0 127 0 0 hsls hslr hsll -2 -8 0 10 -262144
-1 -1 0 1;
#X obj 359 40 vradio 15 1 0 8 vradios vradior vradiol 0 -8 0 10 -262144
-1 -1 0;
#X obj 209 63 hradio 15 1 0 8 hradios hradior hradiol 0 -8 0 10 -262144
-1 -1 0;
#X connect 0 0 16 0;
#X connect 0 0 19 0;
#X connect 1 0 2 0;
#X connect 1 1 2 1;
#X connect 1 2 2 2;
#X connect 3 0 4 0;
#X connect 3 1 4 1;
#X connect 3 2 4 2;
#X connect 5 0 6 0;
#X connect 5 1 6 1;
#X connect 7 0 11 0;
#X connect 7 1 11 1;
#X connect 8 0 12 0;
#X connect 8 1 12 1;
#X connect 9 0 13 0;
#X connect 9 1 13 1;
#X connect 9 2 13 2;
#X connect 10 0 14 0;
#X connect 10 1 14 1;
#X connect 17 0 18 0;
#X connect 17 1 18 1;
#X connect 19 0 15 0;
#X coords 0 -1 1 1 400 150 2 20 20;
