#N canvas 549 252 262 356 10;
#X obj 24 78 dac~;
#X obj 45 16 adc~ 1;
#N canvas 0 22 450 300 sub 0;
#X obj 69 53 sig~ 1;
#X obj 69 92 rpole~ 1;
#X obj 146 28 bang~;
#X msg 146 50 clear;
#X obj 111 179 print~;
#X obj 69 134 outlet~;
#X obj 256 52 block~ 256;
#X obj 69 114 -~ 1;
#X connect 0 0 1 0;
#X connect 1 0 4 0;
#X connect 1 0 7 0;
#X connect 2 0 3 0;
#X connect 3 0 1 0;
#X connect 7 0 5 0;
#X restore 24 42 pd sub;
#X connect 1 0 0 1;
#X connect 2 0 0 0;
#X coords 0 356 1 355 400 150 0;
