#N canvas 224 124 621 300 10;
#X obj 110 114 bng 15 250 50 0 bngs bngr bngl 17 7 0 10 -262144 -1
-1;
#X obj 161 115 tgl 15 0 tgls tglr tgll 17 7 0 10 -262144 -1 -1 1 1
;
#X obj 225 115 vsl 15 128 0 127 0 0 vsls vslr vsll 0 -8 0 10 -262144
-1 -1 100 1;
#X obj 282 185 hsl 128 15 0 127 0 0 hsls hslr hsll 0 -8 0 10 -262144
-1 -1 100 1;
#X obj 440 120 vradio 15 1 0 8 vradios vradior vradiol 0 -8 0 10 -262144
-1 -1 1;
#X obj 290 143 hradio 15 1 0 8 hradios hradior hradiol 0 -8 0 10 -262144
-1 -1 1;
#X obj 108 156 vu 15 80 vur vul 0 -8 0 10 -66577 -1 1 0;
#X obj 178 168 cnv 15 30 30 cnvs cnvr cnvl 20 12 0 14 -233017 -66577
0;
#X obj 312 223 nbx 5 14 0 127 0 0 nbxs nbxr nbxl 0 -8 0 10 -262144
-1 -1 1 256;
#X obj 523 19 loadbang;
#X msg 523 44 1;
#X connect 9 0 10 0;
#X connect 10 0 5 0;
#X connect 10 0 4 0;
#X connect 10 0 3 0;
#X connect 10 0 2 0;
#X connect 10 0 1 0;
#X connect 10 0 8 0;
#X coords 0 -1 1 1 400 150 2 100 100;
