#N canvas 428 294 717 401 10;
#X obj 171 59 metro 5.8049;
#X obj 171 15 loadbang;
#X obj 171 37 f 1;
#X obj 34 124 notein, f 10;
#X obj 70 275 noteout;
#X obj 134 124 ctlin, f 10;
#X obj 170 274 ctlout;
#X obj 215 124 pgmin, f 8;
#X obj 251 274 pgmout;
#X obj 298 124 bendin, f 8;
#X obj 377 124 touchin, f 8;
#X obj 334 274 bendout;
#X obj 413 274 touchout;
#X obj 453 124 polytouchin, f 12;
#X obj 489 274 polytouchout;
#X obj 215 146 pack f f;
#X obj 194 216 list;
#X obj 298 146 pack f f;
#X obj 277 216 list;
#X obj 377 146 pack f f;
#X obj 356 216 list;
#X obj 171 81 s \$0-del;
#X obj 194 191 r \$0-del;
#X obj 277 191 r \$0-del;
#X obj 356 191 r \$0-del;
#X obj 432 216 list;
#X obj 432 191 r \$0-del;
#X obj 453 146 pack f f f, f 12;
#X obj 134 146 pack f f f;
#X obj 113 216 list;
#X obj 113 191 r \$0-del;
#X obj 34 146 pack f f f;
#X obj 13 216 list;
#X obj 13 191 r \$0-del;
#X obj 13 238 route bang;
#X obj 113 238 route bang;
#X obj 194 238 route bang;
#X obj 277 238 route bang;
#X obj 356 238 route bang;
#X obj 432 238 route bang;
#X connect 0 0 21 0;
#X connect 1 0 2 0;
#X connect 2 0 0 0;
#X connect 3 0 31 0;
#X connect 3 1 31 1;
#X connect 3 2 31 2;
#X connect 5 0 28 0;
#X connect 5 1 28 1;
#X connect 5 2 28 2;
#X connect 7 0 15 0;
#X connect 7 1 15 1;
#X connect 9 0 17 0;
#X connect 9 1 17 1;
#X connect 10 0 19 0;
#X connect 10 1 19 1;
#X connect 13 0 27 0;
#X connect 13 1 27 1;
#X connect 13 2 27 2;
#X connect 15 0 16 1;
#X connect 16 0 36 0;
#X connect 17 0 18 1;
#X connect 18 0 37 0;
#X connect 19 0 20 1;
#X connect 20 0 38 0;
#X connect 22 0 16 0;
#X connect 23 0 18 0;
#X connect 24 0 20 0;
#X connect 25 0 39 0;
#X connect 26 0 25 0;
#X connect 27 0 25 1;
#X connect 28 0 29 1;
#X connect 29 0 35 0;
#X connect 30 0 29 0;
#X connect 31 0 32 1;
#X connect 32 0 34 0;
#X connect 33 0 32 0;
#X connect 34 1 4 0;
#X connect 35 1 6 0;
#X connect 36 1 8 0;
#X connect 37 1 11 0;
#X connect 38 1 12 0;
#X connect 39 1 14 0;
#X coords 0 401 1 400 400 150 0;
